<?xml version="1.0" encoding="UTF-8"?>
<svg width="8px" height="8px" viewBox="0 0 8 8" version="1.1" xmlns="http://www.w3.org/2000/svg" xmlns:xlink="http://www.w3.org/1999/xlink">
    <!-- Generator: Sketch 55.2 (78181) - https://sketchapp.com -->
    <title>Clip 2</title>
    <desc>Created with Sketch.</desc>
    <defs>
        <path d="M109.299507,4.70079636 L109.299507,7.30072052 L106.699583,7.30072052 C106.313083,7.30072052 106,7.61441031 106,8.00151688 L106,8.00151688 C106,8.19385666 106.077664,8.36860068 106.203868,8.4960182 L106.203868,8.4960182 C106.330679,8.62282897 106.50603,8.70109973 106.699583,8.70109973 L106.699583,8.70109973 L109.299507,8.70109973 L109.299507,11.3010239 C109.299507,11.4945772 109.378385,11.6693212 109.505195,11.796132 L109.505195,11.796132 C109.631399,11.9229427 109.80675,12.0012135 109.999697,12.0012135 L109.999697,12.0012135 C110.386196,12.0012135 110.699279,11.6881305 110.699279,11.3010239 L110.699279,11.3010239 L110.700493,8.70109973 L113.300417,8.70109973 C113.68631,8.70109973 114,8.38740994 114,8.00030338 L114,8.00030338 C114,7.61441031 113.68631,7.30072052 113.300417,7.30072052 L113.300417,7.30072052 L110.699279,7.30072052 L110.699279,4.70079636 C110.699279,4.3136898 110.386196,4.00060675 109.999697,4 L109.999697,4 C109.61259,4 109.299507,4.3136898 109.299507,4.70079636 L109.299507,4.70079636 Z" id="path-1"></path>
    </defs>
    <g id="GA---Role" stroke="none" stroke-width="1" fill="none" fill-rule="evenodd">
        <g id="employee" transform="translate(-976.000000, -142.000000)">
            <g id="content" transform="translate(322.000000, 40.000000)">
                <g id="employee-section" transform="translate(0.000000, 94.000000)">
                    <g id="header">
                        <g id="add-button" transform="translate(548.000000, 4.000000)">
                            <g id="view-all">
                                <mask id="mask-2" fill="white">
                                    <use xlink:href="#path-1"></use>
                                </mask>
                                <use id="Clip-2" fill="#8186AD" xlink:href="#path-1"></use>
                            </g>
                        </g>
                    </g>
                </g>
            </g>
        </g>
    </g>
</svg>