<?xml version="1.0" encoding="UTF-8"?>
<svg width="220px" height="258px" viewBox="0 0 220 258" version="1.1" xmlns="http://www.w3.org/2000/svg" xmlns:xlink="http://www.w3.org/1999/xlink">
    <!-- Generator: Sketch 55.2 (78181) - https://sketchapp.com -->
    <title>Group 106</title>
    <desc>Created with Sketch.</desc>
    <defs>
        <path d="M14.479514,3.92688696 C-16.8264393,33.445287 15.0975421,90.2285217 18.5988224,94.4356174 L18.5988224,94.4356174 C22.1001028,98.6440348 17.5683364,118.479374 25.4643364,127.599374 L25.4643364,127.599374 C30.4770841,133.338365 36.5875234,132.863861 43.1091028,132.388035 L43.1091028,132.388035 C49.0126542,131.951861 55.2601402,131.513043 61.1663271,135.890643 L61.1663271,135.890643 C66.8643084,140.116243 66.5888972,151.533426 79.0153458,151.781913 L79.0153458,151.781913 C85.6766075,151.914087 89.5218224,149.59047 92.6791682,147.262887 L92.6791682,147.262887 C95.9735607,144.797843 98.4456729,142.3328 102.359411,142.799374 L102.359411,142.799374 C118.218617,144.680209 127.624766,158.557148 136.00043,147.635617 L136.00043,147.635617 C145.681991,135.052661 126.114617,119.305461 124.329056,113.090643 L124.329056,113.090643 C120.416636,99.5150609 144.926916,97.4002783 140.119738,77.8544 L140.119738,77.8544 C135.58929,59.4452174 115.266841,59.4531478 105.105617,50.2168348 L105.105617,50.2168348 C92.1309813,38.4295652 96.3174953,17.4496 83.8225234,12.2181565 L83.8225234,12.2181565 C76.2019346,9.03012174 71.4645981,12.4600348 66.7272617,15.8912696 L66.7272617,15.8912696 C62.6079533,18.8585739 58.4201215,21.8272 52.2398411,20.5094261 L52.2398411,20.5094261 C42.0351308,18.3312 32.055757,0.692591304 21.7153178,0.689947826 L21.7153178,0.689947826 C19.3235888,0.689947826 16.9160467,1.63234783 14.479514,3.92688696 L14.479514,3.92688696 Z" id="path-1"></path>
        <path d="M45.8177675,1.53085714 C57.9577316,21.7542857 65.8443641,46.06 10.1534964,24.6964857 L10.1534964,24.6964857 C7.34032097,23.6342857 -1.84956079,43.0842286 1.23611216,43.6509143 L1.23611216,43.6509143 C73.0451453,56.7612286 66.7368924,26.9081714 49.2457079,0.831228571 L49.2457079,0.831228571 C49.0034878,0.500885714 48.287359,0.331685714 47.5633316,0.331685714 L47.5633316,0.331685714 C46.4535951,0.331685714 45.3201632,0.726485714 45.8177675,1.53085714 L45.8177675,1.53085714 Z" id="path-3"></path>
        <path d="M21.1903125,1.64141299 C20.645625,2.18750634 19.96575,1.74612506 19.285875,1.30474378 L19.285875,1.30474378 C18.5364375,0.873966261 17.7883125,0.444514206 16.970625,0.934937849 L16.970625,0.934937849 C12.3440625,3.65214992 5.4009375,5.76362253 5.4009375,5.76362253 L5.4009375,5.76362253 C5.4009375,5.76362253 6.0151875,19.2197869 0.706125,32.2703577 L0.706125,32.2703577 C-0.5184375,35.3587012 2.611875,41.153653 5.8786875,42.5453957 L5.8786875,42.5453957 C4.5163125,55.619825 8.8725,89.0653919 10.4383125,91.7494673 L10.4383125,91.7494673 C13.9768125,97.8453006 32.4883125,94.0266235 32.2835625,90.7672945 L32.2835625,90.7672945 C31.2624375,73.0669774 33.985875,44.6263825 48.9575625,10.3576991 L48.9575625,10.3576991 C41.811,6.736517 37.9325625,4.69927067 33.9163125,1.17219685 L33.9163125,1.17219685 C33.4411875,0.793112633 32.76,1.11917808 32.080125,1.44259259 L32.080125,1.44259259 C31.3306875,1.78588914 30.5143125,2.13051116 30.037875,1.64141299 L30.037875,1.64141299 C29.271375,0.917706748 27.27375,0.305339929 25.2721875,0.305339929 L25.2721875,0.305339929 C23.722125,0.305339929 22.17075,0.672494926 21.1903125,1.64141299 L21.1903125,1.64141299 Z" id="path-5"></path>
        <path d="M0.600685714,0.58 C0.602057143,0.428636364 0.608914286,0.278636364 0.622628571,0.131363636 L0.622628571,0.131363636 C0.608914286,0.278636364 0.602057143,0.428636364 0.600685714,0.58 L0.600685714,0.58 Z M5.81897143,9.20090909 C3.08982857,7.70909091 0.619885714,3.67272727 0.600685714,0.645454545 L0.600685714,0.645454545 C0.619885714,3.67272727 3.08982857,7.70909091 5.81897143,9.20090909 L5.81897143,9.20090909 Z" id="path-7"></path>
        <path d="M5.57782486,9.65514815 C8.27668757,10.1912963 15.8881903,10.9570185 22.2534573,10.9570185 L22.2534573,10.9570185 C26.5416649,10.9570185 30.2790573,10.5948333 31.3859459,9.54535185 L31.3859459,9.54535185 C31.6633254,9.21596296 31.8697168,8.7397037 31.8697168,8.18501852 L31.8697168,8.18501852 L31.8697168,8.07522222 C31.8013578,5.72387037 29.3798746,2.08918519 27.1660973,2.08918519 L27.1660973,2.08918519 C26.9570768,2.08918519 26.7506854,2.12768519 26.5416649,2.21038889 L26.5416649,2.21038889 C26.0578941,2.3815 25.1587114,2.4527963 23.9834638,2.4527963 L23.9834638,2.4527963 C18.0322941,2.4527963 4.67864216,0.755944444 0.596825946,0.171314815 L0.596825946,0.171314815 C0.320761081,3.37822222 2.81060324,8.00535185 5.57782486,9.65514815 L5.57782486,9.65514815 Z" id="path-9"></path>
        <path d="M9.26281487,1.49429508 C-17.1683974,33.4640656 24.1647789,63.6212951 51.6431491,50.3492459 L51.6431491,50.3492459 C55.1630188,48.657541 50.6354074,35.2208361 48.8984654,36.3893607 L48.8984654,36.3893607 C40.9350724,41.7645738 -8.74908996,35.3469836 13.1256058,1.95639344 L13.1256058,1.95639344 C13.6997689,1.07336066 12.8523199,0.246098361 11.6737745,0.246098361 L11.6737745,0.246098361 C10.9104134,0.246098361 10.0090956,0.592672131 9.26281487,1.49429508 L9.26281487,1.49429508 Z" id="path-11"></path>
        <path d="M13.804875,1.57675 C3.26025,7.4624 -1.708875,32.625475 2.05275,34.411575 L2.05275,34.411575 C4.738125,35.725975 8.633625,32.9607 8.633625,32.9607 L8.633625,32.9607 C8.633625,32.9607 9.6403125,44.810175 0.9095625,48.811675 L0.9095625,48.811675 C3.93225,52.8834 14.6776875,54.29585 19.312125,48.50825 L19.312125,48.50825 C13.335,44.070825 15.9534375,31.069925 16.9614375,27.6077 L16.9614375,27.6077 C22.850625,6.459375 20.393625,0.694296162 16.6543125,0.694296162 L16.6543125,0.694296162 C15.7460625,0.692975 14.763,1.034825 13.804875,1.57675 L13.804875,1.57675 Z" id="path-13"></path>
        <path d="M0.191666667,1.80666667 C1.22,2.27333333 2.16333333,2.75166667 3.02,3.24 L3.02,3.24 L3.02,1.72166667 L3.02,0.27 C3.02,0.27 1.82,1.13 0.191666667,1.80666667 L0.191666667,1.80666667 Z" id="path-15"></path>
        <path d="M0.0265128205,11.1278571 C0.0265128205,11.1407143 0.0265128205,11.1535714 0.094957265,11.1651429 L0.094957265,11.1651429 C1.38092308,10.6431429 2.32861538,9.97971429 2.32861538,9.97971429 L2.32861538,9.97971429 L2.32861538,11.0995714 L2.32861538,12.2708571 C5.98381197,14.256 8.15034188,16.3812857 9.43630769,17.9061429 L9.43630769,17.9061429 C9.30073504,16.9238571 9.2322906,15.9158571 9.2322906,14.9142857 L9.2322906,14.9142857 C9.2322906,10.602 10.1812991,6.381 10.7209573,4.62214286 L10.7209573,4.62214286 C10.7907179,4.36628571 10.8578462,4.113 10.9249744,3.86228571 L10.9249744,3.86228571 C10.4511282,2.952 9.97728205,1.67785714 10.1812991,0.842142857 L10.1812991,0.842142857 C7.20264957,6.83871429 2.59844444,9.96171429 0.0265128205,11.1278571 L0.0265128205,11.1278571 Z" id="path-17"></path>
        <path d="M0.8388,1.5587 C-0.63405,4.5253 -0.0036,32.3011 6.174,37.7858 L6.174,37.7858 C12.3516,43.2718 17.2656,27.3104 17.2656,27.3104 L17.2656,27.3104 L12.4218,5.4171 C12.4218,5.4171 5.60025,0.8125 2.34675,0.8125 L2.34675,0.8125 C2.3454,0.8125 2.3427,0.8125 2.34135,0.8125 L2.34135,0.8125 C1.63665,0.8125 1.10205,1.0309 0.8388,1.5587 L0.8388,1.5587 Z" id="path-19"></path>
    </defs>
    <g id="Empty-State" stroke="none" stroke-width="1" fill="none" fill-rule="evenodd" opacity="0.95">
        <g id="asset-data-empty" transform="translate(-543.000000, -329.000000)">
            <g id="Group-106" transform="translate(543.000000, 329.000000)">
                <path d="M220,115.5 C220,168.795639 175.104886,212 119.724849,212 C64.3448116,212 54.4263546,206.591032 19.4496979,115.5 C0.340719585,65.7345906 64.3448116,19 119.724849,19 C159.258384,19 206.279071,27.0857065 209.778457,73.0064417 C210.873008,87.3546071 220,100.25078 220,115.5" id="Fill-1" fill="#E2F0F2"></path>
                <g id="Group-5" transform="translate(59.000000, 0.000000)">
                    <mask id="mask-2" fill="white">
                        <use xlink:href="#path-1"></use>
                    </mask>
                    <g id="Clip-4"></g>
                    <polygon id="Fill-3" fill="#F8D9AF" mask="url(#mask-2)" points="-5.7441028 158.397217 147.335776 158.397217 147.335776 -5.91742609 -5.7441028 -5.91742609"></polygon>
                </g>
                <g id="Group-8" transform="translate(120.000000, 58.000000)">
                    <mask id="mask-4" fill="white">
                        <use xlink:href="#path-3"></use>
                    </mask>
                    <g id="Clip-7"></g>
                    <polygon id="Fill-6" fill="#4770C8" mask="url(#mask-4)" points="-5.97125106 53.5558286 67.2608249 53.5558286 67.2608249 -6.38125714 -5.97125106 -6.38125714"></polygon>
                </g>
                <polygon id="Fill-9" fill="#F98E73" points="105.46014 169.014142 98 175.851734 132 183 127.585331 168"></polygon>
                <g id="Group-13" transform="translate(96.000000, 77.000000)">
                    <mask id="mask-6" fill="white">
                        <use xlink:href="#path-5"></use>
                    </mask>
                    <g id="Clip-12"></g>
                    <polygon id="Fill-11" fill="#4770C8" mask="url(#mask-6)" points="-6.1280625 101.605657 55.5200625 101.605657 55.5200625 -6.3220066 -6.1280625 -6.3220066"></polygon>
                </g>
                <g id="Group-16" transform="translate(95.000000, 110.000000)">
                    <mask id="mask-8" fill="white">
                        <use xlink:href="#path-7"></use>
                    </mask>
                    <g id="Clip-15"></g>
                    <polygon id="Fill-14" fill="#4A5256" mask="url(#mask-8)" points="-6.25645714 16.0177273 12.6774857 16.0177273 12.6774857 -6.68681818 -6.25645714 -6.68681818"></polygon>
                </g>
                <g id="Group-19" transform="translate(96.000000, 110.000000)">
                    <mask id="mask-10" fill="white">
                        <use xlink:href="#path-9"></use>
                    </mask>
                    <g id="Clip-18"></g>
                    <polygon id="Fill-17" fill="#4A67BE" mask="url(#mask-10)" points="-5.99718054 18.0866481 38.4440043 18.0866481 38.4440043 -6.95688889 -5.99718054 -6.95688889"></polygon>
                </g>
                <g id="Group-22" transform="translate(55.000000, 45.000000)">
                    <mask id="mask-12" fill="white">
                        <use xlink:href="#path-11"></use>
                    </mask>
                    <g id="Clip-21"></g>
                    <polygon id="Fill-20" fill="#4770C8" mask="url(#mask-12)" points="12.6951805 -8.99520492 -18.2820374 22.311959 34.079801 75.2328443 65.0583328 43.9256803"></polygon>
                </g>
                <g id="Group-25" transform="translate(111.000000, 31.000000)">
                    <mask id="mask-14" fill="white">
                        <use xlink:href="#path-13"></use>
                    </mask>
                    <g id="Clip-24"></g>
                    <polygon id="Fill-23" fill="#F2BCB6" mask="url(#mask-14)" points="-5.75925 58.992975 27.05325 58.992975 27.05325 -5.932025 -5.75925 -5.932025"></polygon>
                </g>
                <g id="Group-28" transform="translate(117.000000, 62.000000)">
                    <mask id="mask-16" fill="white">
                        <use xlink:href="#path-15"></use>
                    </mask>
                    <g id="Clip-27"></g>
                </g>
                <g id="Group-31" transform="translate(118.000000, 53.000000)">
                    <mask id="mask-18" fill="white">
                        <use xlink:href="#path-17"></use>
                    </mask>
                    <g id="Clip-30"></g>
                </g>
                <g id="Group-34" transform="translate(125.000000, 27.000000)">
                    <mask id="mask-20" fill="white">
                        <use xlink:href="#path-19"></use>
                    </mask>
                    <g id="Clip-33"></g>
                    <polygon id="Fill-32" fill="#F8D9AF" mask="url(#mask-20)" points="-6.57945 45.4337 24.0156 45.4337 24.0156 -5.6888 -6.57945 -5.6888"></polygon>
                </g>
                <g id="Group-105" transform="translate(0.000000, 34.000000)">
                    <path d="M31.9407366,115.255884 C31.9407366,115.255884 32.1659561,95.4930385 42.7460049,96.1716422 C53.3247366,96.8489232 42.7460049,116.065447 42.7460049,116.065447" id="Stroke-35" stroke="#E5E7EA"></path>
                    <path d="M18.4831463,111.001978 C18.4831463,111.001978 16.533878,106.90919 24.8630488,106.374774 C33.1909024,105.841679 46.4814878,106.018936 50.2022195,107.799445 C53.9242683,109.57863 52.6835854,114.740251 52.6835854,114.740251 L18.4831463,111.001978 Z" id="Fill-37" fill="#D3AD7A"></path>
                    <path d="M18.4831463,111.001978 C18.4831463,111.001978 16.8881707,143.393732 18.4831463,147.665099 C20.078122,151.936467 45.9493902,150.868955 45.9493902,150.868955 C45.9493902,150.868955 51.975,141.08013 52.6835854,116.519436 L52.6835854,112.248069 L18.4831463,111.001978 Z" id="Fill-39" fill="#F2CA8F"></path>
                    <path d="M28.984961,116.321676 C28.984961,116.321676 29.2101805,96.55883 39.7902293,97.2361109 C50.368961,97.9147146 39.7902293,117.131238 39.7902293,117.131238" id="Stroke-41" stroke="#FFFFFF"></path>
                    <path d="M43.6239659,117.131635 C43.6239659,118.770602 42.3003073,120.10003 40.6684537,120.10003 C39.0366,120.10003 37.7129415,118.770602 37.7129415,117.131635 C37.7129415,115.492668 39.0366,114.16324 40.6684537,114.16324 C42.3003073,114.16324 43.6239659,115.492668 43.6239659,117.131635" id="Fill-43" fill="#D3AD7A"></path>
                    <path d="M31.9407366,116.577376 C31.9407366,118.216343 30.617078,119.545771 28.9852244,119.545771 C27.3533707,119.545771 26.0297122,118.216343 26.0297122,116.577376 C26.0297122,114.938409 27.3533707,113.60898 28.9852244,113.60898 C30.617078,113.60898 31.9407366,114.938409 31.9407366,116.577376" id="Fill-45" fill="#D3AD7A"></path>
                    <path d="M66.968561,130.019285 C66.968561,130.019285 51.345439,132.764125 62.6248537,147.973844 C73.9042683,163.183563 152.883878,169.464285 152.883878,169.464285 C152.883878,169.464285 160.179146,169.2738 156.549293,163.460031 C152.920756,157.647585 93.032122,125.836547 66.968561,130.019285" id="Fill-47" fill="#EB8268"></path>
                    <path d="M153.607873,151.002163 L161.586702,151.002163 C161.586702,151.002163 164.187922,167.397123 158.984166,172.701609 C153.779093,178.006094 157.200849,172.586524 152.887434,158.360979 L153.607873,151.002163 Z" id="Fill-49" fill="#784B63"></path>
                    <path d="M164.301454,155.549998 C164.301454,155.549998 177.49721,146.712276 161.069356,137.361302 C144.641502,128.009005 69.8436,154.240412 69.8436,154.240412 C69.8436,154.240412 63.2437463,157.368868 68.8979415,161.21958 C74.5534537,165.070293 142.128527,169.931635 164.301454,155.549998" id="Fill-51" fill="#F98E73"></path>
                    <path d="M65.7306439,11.4387721 C65.7306439,11.4387721 69.6331317,-0.76948108 73.2116195,0.209401504 C76.7887902,1.1896069 74.8382049,18.420586 65.7306439,11.4387721" id="Fill-53" fill="#F2BCB6"></path>
                    <path d="M165.69439,25.3193272 C165.69439,25.3193272 158.756049,16.8414103 164.286439,13.0991686 C169.816829,9.35692697 169.124049,24.6301409 169.124049,24.6301409 L165.69439,25.3193272 Z" id="Fill-55" fill="#F2BCB6"></path>
                    <path d="M68.1788195,155.328427 L60.2013073,155.328427 C60.2013073,155.328427 57.5987707,171.723387 62.8025268,177.027873 C68.0076,182.332358 64.5858439,176.912788 68.8979415,162.687243 L68.1788195,155.328427 Z" id="Fill-57" fill="#784B63"></path>
                    <path d="M97.0310195,151.932366 C97.0310195,151.932366 97.256239,132.16952 107.836288,132.848124 C118.41502,133.525405 107.836288,152.741928 107.836288,152.741928" id="Stroke-59" stroke="#E5E7EA"></path>
                    <path d="M83.5734293,147.678989 C83.5734293,147.678989 81.624161,143.584878 89.9520146,143.050461 C98.2811854,142.517367 111.571771,142.694624 115.292502,144.475132 C119.014551,146.254318 117.773868,151.415939 117.773868,151.415939 L83.5734293,147.678989 Z" id="Fill-61" fill="#D3AD7A"></path>
                    <path d="M83.5734293,147.678989 C83.5734293,147.678989 81.9784537,180.070743 83.5734293,184.34211 C85.1684049,188.613477 111.039673,187.545966 111.039673,187.545966 C111.039673,187.545966 117.065283,177.75714 117.773868,153.195124 L117.773868,148.923757 L83.5734293,147.678989 Z" id="Fill-63" fill="#F2CA8F"></path>
                    <path d="M94.0753756,152.998025 C94.0753756,152.998025 94.3005951,133.235179 104.880644,133.91246 C115.459376,134.591064 104.880644,153.807587 104.880644,153.807587" id="Stroke-65" stroke="#FFFFFF"></path>
                    <path d="M108.71359,153.807984 C108.71359,155.446951 107.391249,156.776379 105.758078,156.776379 C104.126224,156.776379 102.802566,155.446951 102.802566,153.807984 C102.802566,152.169017 104.126224,150.839589 105.758078,150.839589 C107.391249,150.839589 108.71359,152.169017 108.71359,153.807984" id="Fill-67" fill="#D3AD7A"></path>
                    <path d="M97.0310195,153.253857 C97.0310195,154.892824 95.707361,156.222253 94.0755073,156.222253 C92.4436537,156.222253 91.1199951,154.892824 91.1199951,153.253857 C91.1199951,151.61489 92.4436537,150.285462 94.0755073,150.285462 C95.707361,150.285462 97.0310195,151.61489 97.0310195,153.253857" id="Fill-69" fill="#D3AD7A"></path>
                    <path d="M32.5323659,155.990496 C32.5323659,155.990496 32.7628537,133.100517 43.8117805,127.319818 C54.8633415,121.53912 64.071,121.53912 63.8405122,133.793672 C63.6113415,146.048223 56.7046098,162.001364 56.7046098,162.001364" id="Stroke-71" stroke="#3B79DF"></path>
                    <path d="M13.1325366,141.12828 C13.1325366,141.12828 77.5347805,144.676068 87.5800976,161.047218 L63.1233659,191.33702 C63.1233659,191.33702 -3.98414634,175.782046 13.1325366,141.12828" id="Fill-73" fill="#83B4FE"></path>
                    <path d="M20.9687268,158.010962 C20.9687268,158.010962 18.6664829,143.212638 35.9319951,146.681058 C53.1988244,150.149477 58.4934585,153.386403 58.4934585,153.386403 C58.4934585,153.386403 64.4795561,153.154911 58.4934585,169.802529 C52.507361,186.45147 20.9687268,158.010962 20.9687268,158.010962" id="Fill-75" fill="#FFFFFF"></path>
                    <path d="M0.0916682927,152.315982 C0.0916682927,152.315982 6.61249756,142.492763 13.1320098,141.127619 L13.1320098,176.327707 L0.0916682927,152.315982 Z" id="Fill-77" fill="#61A0FF"></path>
                    <path d="M0.0916682927,152.315982 C0.0916682927,152.315982 0.0916682927,209.66395 2.26483902,215.098072 C4.43932683,220.533516 60.1804976,231.766855 79.3109854,215.098072 C79.3109854,215.098072 87.8456195,168.142132 87.5743024,165.959489 C87.3029854,163.776845 89.2166927,161.592879 87.5808878,161.047879 C85.9450829,160.501557 32.9658146,162.411701 0.0916682927,152.315982" id="Fill-79" fill="#9BC4FE"></path>
                    <path d="M26.9823512,166.603435 C26.9823512,166.603435 27.212839,143.713456 38.2630829,137.932757 C49.3133268,132.152059 58.5209854,132.152059 58.2904976,144.406611 C58.0613268,156.661162 51.1545951,172.615626 51.1545951,172.615626" id="Stroke-81" stroke="#3B79DF"></path>
                    <path d="M30.0280829,167.379794 C30.0280829,169.018761 28.7057415,170.34819 27.0725707,170.34819 C25.4407171,170.34819 24.1170585,169.018761 24.1170585,167.379794 C24.1170585,165.740827 25.4407171,164.411399 27.0725707,164.411399 C28.7057415,164.411399 30.0280829,165.740827 30.0280829,167.379794" id="Fill-83" fill="#FFFFFF"></path>
                    <path d="M54.099439,172.615493 C54.099439,174.25446 52.7770976,175.583889 51.1439268,175.583889 C49.5120732,175.583889 48.1884146,174.25446 48.1884146,172.615493 C48.1884146,170.975204 49.5120732,169.647098 51.1439268,169.647098 C52.7770976,169.647098 54.099439,170.975204 54.099439,172.615493" id="Fill-85" fill="#FFFFFF"></path>
                    <path d="M193.168932,143.007867 C193.168932,143.007867 193.009566,127.099702 185.329712,123.082315 C177.649859,119.064928 171.2502,119.064928 171.409566,127.581206 C171.571566,136.097485 176.369663,147.185314 176.369663,147.185314" id="Stroke-87" stroke="#3B79DF"></path>
                    <path d="M206.65102,132.678539 C206.65102,132.678539 161.894239,135.144265 154.912434,146.521791 L171.909263,167.571735 C171.909263,167.571735 218.546824,156.763019 206.65102,132.678539" id="Fill-89" fill="#83B4FE"></path>
                    <path d="M201.205185,144.411373 C201.205185,144.411373 202.805429,134.127814 190.805576,136.537982 C178.807039,138.94815 175.127137,141.198257 175.127137,141.198257 C175.127137,141.198257 170.966502,141.036874 175.127137,152.606207 C179.286454,164.176864 201.205185,144.411373 201.205185,144.411373" id="Fill-91" fill="#E0E1E2"></path>
                    <path d="M193.098205,143.116338 C193.098205,143.116338 194.698449,132.832779 182.698595,135.241624 C170.700059,137.653115 167.020156,139.901899 167.020156,139.901899 C167.020156,139.901899 162.859522,139.741838 167.020156,151.311172 C171.179473,162.880506 193.098205,143.116338 193.098205,143.116338" id="Fill-93" fill="#FFFFFF"></path>
                    <path d="M215.714854,140.453909 C215.714854,140.453909 211.184122,133.626865 206.650756,132.678407 L206.650756,157.141212 L215.714854,140.453909 Z" id="Fill-95" fill="#61A0FF"></path>
                    <path d="M215.714854,140.453909 C215.714854,140.453909 215.714854,180.308981 214.204171,184.085616 C212.693488,187.863574 173.954415,195.670824 160.658561,184.085616 C160.658561,184.085616 154.72778,151.451787 154.916122,149.935842 C155.104463,148.418574 153.775537,146.901306 154.912171,146.521658 C156.048805,146.143334 192.867585,147.470116 215.714854,140.453909" id="Fill-97" fill="#CFCFD1"></path>
                    <path d="M197.026376,150.383483 C197.026376,150.383483 196.86701,134.475318 189.187156,130.457931 C181.507302,126.440544 175.107644,126.440544 175.26701,134.956822 C175.427693,143.473101 180.227107,154.56093 180.227107,154.56093" id="Stroke-99" stroke="#3B79DF"></path>
                    <path d="M194.90918,150.922794 C194.90918,152.061737 195.828498,152.986384 196.963815,152.986384 C198.097815,152.986384 199.017132,152.061737 199.017132,150.922794 C199.017132,149.783851 198.097815,148.859204 196.963815,148.859204 C195.828498,148.859204 194.90918,149.783851 194.90918,150.922794" id="Fill-101" fill="#FFFFFF"></path>
                    <path d="M178.180902,154.561195 C178.180902,155.700138 179.10022,156.624785 180.235537,156.624785 C181.369537,156.624785 182.288854,155.700138 182.288854,154.561195 C182.288854,153.422252 181.369537,152.497604 180.235537,152.497604 C179.10022,152.497604 178.180902,153.422252 178.180902,154.561195" id="Fill-103" fill="#FFFFFF"></path>
                </g>
            </g>
        </g>
    </g>
</svg>