<?xml version="1.0" encoding="UTF-8"?>
<svg width="9px" height="13px" viewBox="0 0 9 13" version="1.1" xmlns="http://www.w3.org/2000/svg" xmlns:xlink="http://www.w3.org/1999/xlink">
    <!-- Generator: Sketch 55.2 (78181) - https://sketchapp.com -->
    <title>Shape</title>
    <desc>Created with Sketch.</desc>
    <g id="GA---Role" stroke="none" stroke-width="1" fill="none" fill-rule="evenodd">
        <g id="home" transform="translate(-940.000000, -685.000000)" fill="#F98E73" fill-rule="nonzero">
            <g id="content" transform="translate(322.000000, 40.000000)">
                <g id="asset-section" transform="translate(0.000000, 313.000000)">
                    <g id="assets" transform="translate(0.000000, 63.000000)">
                        <g id="row-05" transform="translate(20.000000, 256.000000)">
                            <g id="ignore" transform="translate(582.000000, 0.000000)">
                                <path d="M24.9977324,15.4243703 C24.9979434,15.4268078 24.9983427,15.4290812 24.9983427,15.4317999 L24.9982246,20.6078445 C24.9982246,20.6103289 24.9978965,20.6127429 24.9978496,20.6151804 C24.9939824,20.7573052 24.9204357,20.8861643 24.7990531,20.9615157 L23.8297972,21.5630848 C23.5098291,21.7616469 23.112447,21.7616469 22.792643,21.5630848 L22.1274646,21.1502341 C21.9903789,21.0651796 21.8200589,21.0651796 21.6829733,21.1502341 L21.0177949,21.5630848 C20.8579046,21.6623659 20.6785377,21.7120064 20.4992178,21.7120064 C20.3198744,21.7120064 20.1405779,21.6623893 19.9806407,21.5630848 L19.3154623,21.1502341 C19.1783766,21.0651796 19.0080566,21.0651561 18.870971,21.1502575 L18.2057926,21.5630848 C17.8859416,21.7616001 17.4885362,21.7616001 17.1686383,21.5631083 L16.1994527,20.9615391 C16.0780233,20.8861408 16.0044531,20.7573052 16.0006094,20.615157 C16.0005391,20.6126726 16.0002344,20.6103054 16.0002344,20.6078211 L16.0001172,13.5917488 C16.0001172,13.2654292 16.2655932,13 16.5918426,13 L22.5665887,13 C22.6451042,13 22.7159791,13.0322968 22.766979,13.0841873 L24.9159591,15.2331675 C24.9678262,15.285058 24.9958106,15.3538704 24.9977324,15.4243703 Z M24.9982949,23.2800366 L24.9982949,25.4082277 C24.9982949,25.7345708 24.7328189,26 24.4065695,26 L16.5917254,26 C16.2654292,26 16,25.7345474 16,25.4082512 L16.0001172,23.2800366 C16.0001172,23.27931 16.0002344,23.2786069 16.0002344,23.2778803 C16.0002344,23.2771538 16.0001172,23.2764506 16.0001172,23.2757241 C16.0001172,23.122865 16.0831327,22.9817481 16.2167261,22.9074279 C16.3503431,22.8330843 16.5139834,22.8370687 16.6438503,22.9176466 L17.4744502,23.43313 C17.6056062,23.5145517 17.7686372,23.5145283 17.89984,23.43313 L18.5840965,23.0084433 C18.8980412,22.8135609 19.2881811,22.8135609 19.6021492,23.0084433 L20.2864526,23.4331535 C20.4176554,23.5145283 20.5806629,23.5145283 20.7118658,23.43313 L21.3961691,23.0084433 C21.7101138,22.813514 22.1002303,22.813514 22.4142218,23.0084433 L23.0985252,23.4331535 C23.2296812,23.5145283 23.3927121,23.5145283 23.523915,23.43313 L24.3545384,22.9176466 C24.4844053,22.8370452 24.6480456,22.8331781 24.7816391,22.9074279 C24.915256,22.9817246 24.9982949,23.1228884 24.9982949,23.2757241 C24.9982949,23.2764506 24.9981309,23.2771538 24.9981309,23.2778803 C24.9981309,23.2786069 24.9982949,23.27931 24.9982949,23.2800366 Z" id="Shape"></path>
                            </g>
                        </g>
                    </g>
                </g>
            </g>
        </g>
    </g>
</svg>