<?xml version="1.0" encoding="UTF-8"?>
<svg width="12px" height="12px" viewBox="0 0 12 12" version="1.1" xmlns="http://www.w3.org/2000/svg" xmlns:xlink="http://www.w3.org/1999/xlink">
    <!-- Generator: Sketch 55.2 (78181) - https://sketchapp.com -->
    <title>Path</title>
    <desc>Created with Sketch.</desc>
    <g id="GA---Role" stroke="none" stroke-width="1" fill="none" fill-rule="evenodd">
        <g id="request-list" transform="translate(-938.000000, -201.000000)" fill="#F98E73" fill-rule="nonzero">
            <g id="content" transform="translate(322.000000, 40.000000)">
                <g id="employee-section" transform="translate(0.000000, 94.000000)">
                    <g id="assets" transform="translate(0.000000, 53.000000)">
                        <g id="row-01" transform="translate(20.000000, 0.000000)">
                            <g id="action" transform="translate(532.000000, 0.000000)">
                                <g id="ignore" transform="translate(50.000000, 0.000000)">
                                    <path d="M25.5943801,16.3635864 L21.9584507,19.9999182 L25.5943801,23.6360777 C26.1352066,24.1771145 26.1352066,25.0535216 25.5943801,25.5945583 C25.3241563,25.8647839 24.9698751,26 24.6157662,26 C24.2610716,26 23.906756,25.8649906 23.6367389,25.5945583 L20.0000172,21.9579854 L16.3635711,25.5945239 C16.0933818,25.8647494 15.7390662,26 15.3846472,26 C15.0303316,26 14.6762571,25.8649561 14.4058266,25.5945239 C13.8650001,25.0537283 13.8650001,24.1772867 14.4058266,23.6360433 L18.0416526,19.9998837 L14.4056199,16.3635864 C13.8647934,15.8227564 13.8647934,14.9461425 14.4056199,14.4053125 C14.9463431,13.8648958 15.8224345,13.8648958 16.3633644,14.4053125 L19.9999828,18.0416443 L23.6363255,14.4053125 C24.1773588,13.8648958 25.0535536,13.8648958 25.5941734,14.4053125 C26.1352066,14.9461425 26.1352066,15.8227564 25.5943801,16.3635864 Z" id="Path"></path>
                                </g>
                            </g>
                        </g>
                    </g>
                </g>
            </g>
        </g>
    </g>
</svg>