<?xml version="1.0" encoding="UTF-8"?>
<svg width="32px" height="26px" viewBox="0 0 32 26" version="1.1" xmlns="http://www.w3.org/2000/svg" xmlns:xlink="http://www.w3.org/1999/xlink">
    <!-- Generator: Sketch 55.2 (78181) - https://sketchapp.com -->
    <title>folder-icon</title>
    <desc>Created with Sketch.</desc>
    <defs>
        <linearGradient x1="50%" y1="0%" x2="50%" y2="100%" id="linearGradient-1">
            <stop stop-color="#F8CC92" offset="0%"></stop>
            <stop stop-color="#FBD199" offset="100%"></stop>
        </linearGradient>
    </defs>
    <g id="GA---Role" stroke="none" stroke-width="1" fill="none" fill-rule="evenodd">
        <g id="home" transform="translate(-342.000000, -217.000000)" fill-rule="nonzero">
            <g id="content" transform="translate(322.000000, 40.000000)">
                <g id="team-section" transform="translate(0.000000, 94.000000)">
                    <g id="team-01" transform="translate(0.000000, 63.000000)">
                        <g id="folder-icon" transform="translate(20.000000, 20.000000)">
                            <path d="M28.8,3.25 L19.856,3.25 C19.4362562,3.24820499 19.034017,3.07895927 18.736,2.77875 L16.464,0.47125 C16.165983,0.171040734 15.7637438,0.00179501001 15.344,0 L3.2,0 C1.4326888,0 0,1.45507456 0,3.25 L0,22.75 C0,24.5449254 1.4326888,26 3.2,26 L28.8,26 C30.5673112,26 32,24.5449254 32,22.75 L32,6.5 C32,4.70507456 30.5673112,3.25 28.8,3.25 Z" id="folder" fill="url(#linearGradient-1)"></path>
                            <path d="M17.4117647,12.6666667 C17.4117647,11.6541446 18.2545228,10.8333333 19.2941176,10.8333333 C20.3337125,10.8333333 21.1764706,11.6541446 21.1764706,12.6666667 C21.1764706,13.6791887 20.3337125,14.5 19.2941176,14.5 C18.2545228,14.5 17.4117647,13.6791887 17.4117647,12.6666667 L17.4117647,12.6666667 Z M13.1764706,13.5833333 C14.4759641,13.5833333 15.5294118,12.5573192 15.5294118,11.2916667 C15.5294118,10.0260141 14.4759641,9 13.1764706,9 C11.8769771,9 10.8235294,10.0260141 10.8235294,11.2916667 C10.8235294,12.5573192 11.8769771,13.5833333 13.1764706,13.5833333 Z M18.0455985,16.6847254 C17.6349626,15.906203 16.7939124,15.4149611 15.8745762,15.4166667 L11.4195415,15.4166667 C10.5002052,15.4149611 9.65915506,15.906203 9.24851917,16.6847254 L8.08633621,18.8923622 C7.96045788,19.1287995 7.97290614,19.4100705 8.11923493,19.6357154 C8.26556371,19.8613603 8.52490434,19.9991988 8.80462984,20 L18.4894878,20 C18.7692133,19.9991988 19.0285539,19.8613603 19.1748827,19.6357154 C19.3212115,19.4100705 19.3336598,19.1287995 19.2077814,18.8923622 L18.0455985,16.6847254 Z M23.9108531,18.9366667 L23.1191746,17.5433334 C22.6941895,16.8011644 21.8302194,16.3330802 20.885808,16.3333333 L19.2941176,16.3333333 L20.4024675,18.284 C20.7069523,18.8173915 20.7520704,19.4367631 20.5274694,20 L23.1691754,20 C23.4580074,19.9992308 23.7257908,19.8669057 23.8768834,19.6502864 C24.0279759,19.4336671 24.0408294,19.1636467 23.9108531,18.9366667 Z" id="people" fill="#E2AB5F"></path>
                        </g>
                    </g>
                </g>
            </g>
        </g>
    </g>
</svg>