<?xml version="1.0" encoding="UTF-8"?>
<svg width="40px" height="40px" viewBox="0 0 40 40" version="1.1" xmlns="http://www.w3.org/2000/svg" xmlns:xlink="http://www.w3.org/1999/xlink">
    <!-- Generator: Sketch 55.2 (78181) - https://sketchapp.com -->
    <title>ignore</title>
    <desc>Created with Sketch.</desc>
    <g id="Role---Karyawan" stroke="none" stroke-width="1" fill="none" fill-rule="evenodd">
        <g id="detail-asset-from-profile" transform="translate(-924.000000, -587.000000)">
            <g id="content" transform="translate(322.000000, 40.000000)">
                <g id="data-section" transform="translate(0.000000, 94.000000)">
                    <g id="data" transform="translate(0.000000, 63.000000)">
                        <g id="ignore" transform="translate(602.000000, 390.000000)">
                            <rect id="field" fill="#4C52BC" opacity="0.06" x="0" y="0" width="40" height="40" rx="20"></rect>
                            <path d="M24.7624646,19.6739764 L20.5840141,15.2513676 C20.4257022,15.0837813 20.2312182,15 20.0000225,15 C19.7647128,15 19.5720722,15.0837813 19.4223255,15.2513676 L15.243875,19.6739764 C15.0812692,19.8460599 15,20.0522176 15,20.2922589 C15,20.5277554 15.0813591,20.7314859 15.243875,20.903617 L15.725218,21.4130386 C15.8793034,21.5850983 16.0718766,21.6713304 16.3029149,21.6713304 C16.5339757,21.6713304 16.7265039,21.5850983 16.8806118,21.4130386 L18.7676533,19.422585 L18.7676533,24.2052796 C18.7676533,24.4406095 18.8478434,24.632062 19.008336,24.7793514 C19.1688286,24.9264981 19.3624584,25 19.5891803,25 L20.4107523,25 C20.6375641,25 20.831104,24.9264743 20.9915966,24.7793514 C21.1520892,24.6321096 21.2324142,24.4406095 21.2324142,24.2052796 L21.2324142,19.4226088 L23.1194331,21.4130624 C23.2733837,21.5851221 23.4659344,21.6713542 23.6971975,21.6713542 C23.923852,21.6713542 24.1186508,21.5851221 24.2811442,21.4130624 L24.7624422,20.9036408 C24.9207766,20.7269411 25,20.5232106 25,20.2922827 C25,20.0567623 24.9207991,19.8506761 24.7624646,19.6739764 Z" id="Path" fill="#C1C4E8" fill-rule="nonzero"></path>
                        </g>
                    </g>
                </g>
            </g>
        </g>
    </g>
</svg>