<?xml version="1.0" encoding="UTF-8"?>
<svg width="40px" height="40px" viewBox="0 0 40 40" version="1.1" xmlns="http://www.w3.org/2000/svg" xmlns:xlink="http://www.w3.org/1999/xlink">
    <!-- Generator: Sketch 55.2 (78181) - https://sketchapp.com -->
    <title>ignore copy</title>
    <desc>Created with Sketch.</desc>
    <g id="Role---Karyawan" stroke="none" stroke-width="1" fill="none" fill-rule="evenodd">
        <g id="detail-asset-from-profile" transform="translate(-874.000000, -587.000000)" fill="#F8D9AF">
            <g id="content" transform="translate(322.000000, 40.000000)">
                <g id="data-section" transform="translate(0.000000, 94.000000)">
                    <g id="data" transform="translate(0.000000, 63.000000)">
                        <g id="ignore-copy" transform="translate(552.000000, 390.000000)">
                            <rect id="field" opacity="0.24" x="0" y="0" width="40" height="40" rx="20"></rect>
                            <path d="M15.6739764,13.2375354 C15.8506761,13.0792009 16.0567623,13 16.2922827,13 C16.5232106,13 16.7269411,13.0792234 16.9036408,13.2375578 L17.4130624,13.7188558 C17.5851221,13.8813492 17.6713542,14.076148 17.6713542,14.3028025 C17.6713542,14.5340656 17.5851221,14.7266163 17.4130624,14.8805669 L15.4226088,16.7675858 L20.2052796,16.7675858 C20.4406095,16.7675858 20.6321096,16.8479108 20.7793514,17.0084034 C20.9264743,17.168896 21,17.3624359 21,17.5892477 L21,18.4108197 C21,18.6375416 20.9264981,18.8311714 20.7793514,18.991664 C20.632062,19.1521566 20.4406095,19.2323467 20.2052796,19.2323467 L15.422585,19.2323467 L17.4130386,21.1193882 C17.5850983,21.2734961 17.6713304,21.4660243 17.6713304,21.6970851 C17.6713304,21.9281234 17.5850983,22.1206966 17.4130386,22.274782 L16.903617,22.756125 C16.7314859,22.9186409 16.5277554,23 16.2922589,23 C16.0522176,23 15.8460599,22.9187308 15.6739764,22.756125 L11.2513676,18.5776745 C11.0837813,18.4279278 11,18.2352872 11,17.9999775 C11,17.7687818 11.0837813,17.5742978 11.2513676,17.4159859 L15.6739764,13.2375354 Z M24.3260236,26.7624646 C24.1493239,26.9207991 23.9432377,27 23.7077173,27 C23.4767894,27 23.2730589,26.9207766 23.0963592,26.7624422 L22.5869376,26.2811442 C22.4148779,26.1186508 22.3286458,25.923852 22.3286458,25.6971975 C22.3286458,25.4659344 22.4148779,25.2733837 22.5869376,25.1194331 L24.5773912,23.2324142 L19.7947204,23.2324142 C19.5593905,23.2324142 19.3678904,23.1520892 19.2206486,22.9915966 C19.0735257,22.831104 19,22.6375641 19,22.4107523 L19,21.5891803 C19,21.3624584 19.0735019,21.1688286 19.2206486,21.008336 C19.367938,20.8478434 19.5593905,20.7676533 19.7947204,20.7676533 L24.577415,20.7676533 L22.5869614,18.8806118 C22.4149017,18.7265039 22.3286696,18.5339757 22.3286696,18.3029149 C22.3286696,18.0718766 22.4149017,17.8793034 22.5869614,17.725218 L23.096383,17.243875 C23.2685141,17.0813591 23.4722446,17 23.7077411,17 C23.9477824,17 24.1539401,17.0812692 24.3260236,17.243875 L28.7486324,21.4223255 C28.9162187,21.5720722 29,21.7647128 29,22.0000225 C29,22.2312182 28.9162187,22.4257022 28.7486324,22.5840141 L24.3260236,26.7624646 Z" id="Combined-Shape" fill-rule="nonzero"></path>
                        </g>
                    </g>
                </g>
            </g>
        </g>
    </g>
</svg>