<?xml version="1.0" encoding="UTF-8"?>
<svg width="12px" height="12px" viewBox="0 0 12 12" version="1.1" xmlns="http://www.w3.org/2000/svg" xmlns:xlink="http://www.w3.org/1999/xlink">
    <!-- Generator: Sketch 55.2 (78181) - https://sketchapp.com -->
    <title>resign</title>
    <desc>Created with Sketch.</desc>
    <g id="GA---Role" stroke="none" stroke-width="1" fill="none" fill-rule="evenodd">
        <g id="employee" transform="translate(-939.000000, -201.000000)" fill="#F98E73" fill-rule="nonzero">
            <g id="content" transform="translate(322.000000, 40.000000)">
                <g id="employee-section" transform="translate(0.000000, 94.000000)">
                    <g id="assets" transform="translate(0.000000, 53.000000)">
                        <g id="row-01" transform="translate(20.000000, 0.000000)">
                            <g id="ignore" transform="translate(581.000000, 0.000000)">
                                <path d="M23.5,20.4999695 C23.7764893,20.4999695 23.9999695,20.723999 23.9999695,20.999939 L23.9999695,23 C23.9999695,23.8269958 23.3269653,24.5 22.4999695,24.5 L20.9999695,24.5 L20.9999695,24.9999695 C20.9999695,25.5514832 20.5515442,26 20.0000305,26 C19.8934631,26 19.7920227,25.9849853 19.690033,25.9534912 L16.6809693,24.9504394 C16.2720032,24.8084412 16,24.4269409 16,23.999939 L16,14.999939 C16,14.4484253 16.4485169,14 17.0000305,14 C17.0244751,14 17.0474548,14.0089722 17.0715332,14.0109863 C17.0900268,14.0085144 17.105957,14 17.125,14 L22.4999695,14 C23.3269653,14 23.9999695,14.6730042 23.9999695,15.5 L23.9999695,17 C23.9999695,17.2759399 23.7764893,17.4999695 23.5,17.4999695 C23.2235107,17.4999695 23.0000305,17.2759399 23.0000305,17 L23.0000305,15.5 C23.0000305,15.2244263 22.776001,14.999939 22.4999695,14.999939 L20.1709595,14.999939 L20.3190003,15.049469 C20.7279663,15.1914673 20.9999695,15.5729675 20.9999695,15.9999695 L20.9999695,23.4999695 L22.4999695,23.4999695 C22.776001,23.4999695 23.0000305,23.2754822 23.0000305,23 L23.0000305,20.999939 C23.0000305,20.723999 23.2235107,20.4999695 23.5,20.4999695 Z M27.8535156,18.6464844 C28.0489807,18.8419495 28.0489807,19.1579895 27.8535156,19.3534546 L25.8534546,21.3535156 C25.7105408,21.4964294 25.4954834,21.5394592 25.3085327,21.4620056 C25.1220398,21.3844605 25,21.2019958 25,20.999939 L25,19.499939 L23.0000305,19.499939 C22.723999,19.499939 22.4999695,19.276001 22.4999695,18.9999695 C22.4999695,18.723938 22.723999,18.5 23.0000305,18.5 L25,18.5 L25,17 C25,16.7979431 25.1220398,16.6154785 25.3085327,16.5379333 C25.4954834,16.4604797 25.7105408,16.5035095 25.8534546,16.6465149 L27.8535156,18.6464844 Z" id="resign"></path>
                            </g>
                        </g>
                    </g>
                </g>
            </g>
        </g>
    </g>
</svg>