<?xml version="1.0" encoding="UTF-8"?>
<svg width="16px" height="16px" viewBox="0 0 16 16" version="1.1" xmlns="http://www.w3.org/2000/svg" xmlns:xlink="http://www.w3.org/1999/xlink">
    <!-- Generator: Sketch 59.1 (86144) - https://sketch.com -->
    <title>status</title>
    <desc>Created with Sketch.</desc>
    <defs>
        <path d="M6.33069535,4.34363804 C5.88390553,4.55002124 5.46653603,4.84957743 5.11249499,5.24781686 L5.11249499,5.24781686 C4.63129836,5.79032414 4.33510065,6.45105093 4.2244005,7.14534004 L4.2244005,7.14534004 C4.17802611,7.43087019 4.36103042,7.71038918 4.64426325,7.77601103 L4.64426325,7.77601103 C4.94095961,7.84513938 5.22668569,7.65328315 5.27455603,7.35322603 L5.27455603,7.35322603 C5.36531021,6.79068154 5.62061867,6.25919471 6.04098008,5.84392366 L6.04098008,5.84392366 C6.34665213,5.54136189 6.70667696,5.33147218 7.09013831,5.20623966 L7.09013831,5.20623966 C8.10389244,4.87512487 9.27571841,5.15664758 10.05411,6.01373897 L10.05411,6.01373897 L9.28918194,6.6935011 C9.2462981,6.73107086 9.27073192,6.80470758 9.32957254,6.81973548 L9.32957254,6.81973548 L11.9215519,7.41984973 C11.9634384,7.42986833 12.0028317,7.39480323 11.9998398,7.35072138 L11.9998398,7.35072138 L11.7240867,4.69128353 C11.7181029,4.63167284 11.6467961,4.59710867 11.6049095,4.63467843 L11.6049095,4.63467843 L10.8379868,5.31544242 C10.0546087,4.44582778 8.97802475,4 7.90792324,4 L7.90792324,4 C7.36738735,4 6.82884605,4.11371113 6.33069535,4.34363804 L6.33069535,4.34363804 Z M10.726788,8.64813031 C10.6390257,9.21067481 10.3822213,9.74366442 9.95986532,10.1574327 L9.95986532,10.1574327 C9.65319597,10.4614972 9.29217384,10.6698842 8.91170438,10.7946158 L8.91170438,10.7946158 C7.89745161,11.1262315 6.72412969,10.8467125 5.94673535,9.98761738 L5.94673535,9.98761738 L6.71266075,9.30835617 C6.7545473,9.27028549 6.72961483,9.19514597 6.6717715,9.18212179 L6.6717715,9.18212179 L4.07829624,8.58050475 C4.03491374,8.57098708 3.99502179,8.60605219 4.00050694,8.6496331 L4.00050694,8.6496331 L4.27426543,11.3070672 C4.28174517,11.3681807 4.35105743,11.4012421 4.39394127,11.3636723 L4.39394127,11.3636723 L5.16086397,10.6829083 C6.33717779,11.9928405 8.18218038,12.3434916 9.6676568,11.6547127 L9.6676568,11.6547127 C10.1149453,11.4483295 10.5298215,11.1472705 10.8853585,10.7505339 L10.8853585,10.7505339 C11.3685497,10.2095294 11.6647474,9.54830169 11.7749489,8.85451351 L11.7749489,8.85451351 C11.8208247,8.56748057 11.638319,8.2899653 11.3560835,8.22384253 L11.3560835,8.22384253 C11.3156929,8.21482579 11.275801,8.21031741 11.2364077,8.21031741 L11.2364077,8.21031741 C10.987083,8.21031741 10.7681759,8.38914946 10.726788,8.64813031 L10.726788,8.64813031 Z" id="path-1"></path>
    </defs>
    <g id="daftar-produk" stroke="none" stroke-width="1" fill="none" fill-rule="evenodd">
        <g id="more-than-2-saleschannel-showed" transform="translate(-379.000000, -276.000000)">
            <g id="isi" transform="translate(300.000000, 90.000000)">
                <g id="table" transform="translate(0.000000, 109.000000)">
                    <g id="list" transform="translate(0.000000, 50.000000)">
                        <g id="1">
                            <g id="data" transform="translate(40.000000, 15.000000)">
                                <g id="status" transform="translate(39.000000, 12.000000)">
                                    <circle id="Oval" fill="#FFCC00" cx="8" cy="8" r="8"></circle>
                                    <mask id="mask-2" fill="white">
                                        <use xlink:href="#path-1"></use>
                                    </mask>
                                    <use id="refresh" fill="#FFFFFF" xlink:href="#path-1"></use>
                                </g>
                            </g>
                        </g>
                    </g>
                </g>
            </g>
        </g>
    </g>
</svg>