<?xml version="1.0" encoding="UTF-8"?>
<svg width="9px" height="13px" viewBox="0 0 9 13" version="1.1" xmlns="http://www.w3.org/2000/svg" xmlns:xlink="http://www.w3.org/1999/xlink">
    <!-- Generator: Sketch 55.2 (78181) - https://sketchapp.com -->
    <title>Shape</title>
    <desc>Created with Sketch.</desc>
    <g id="GA---Role" stroke="none" stroke-width="1" fill="none" fill-rule="evenodd">
        <g id="asset-data-" transform="translate(-940.000000, -717.000000)" fill="#63AFEC" fill-rule="nonzero">
            <g id="content" transform="translate(322.000000, 40.000000)">
                <g id="asset-section" transform="translate(0.000000, 94.000000)">
                    <g id="assets" transform="translate(0.000000, 57.000000)">
                        <g id="row-09" transform="translate(20.000000, 512.000000)">
                            <g id="ignore" transform="translate(582.000000, 0.000000)">
                                <path d="M24.9925615,21.6717054 C24.9963449,21.714954 24.9982949,21.7591043 24.9982949,21.8037773 C24.9982949,21.8051632 24.9981309,21.8065043 24.9981309,21.8078901 C24.9981309,21.8092759 24.9982949,21.8106171 24.9982949,21.8120029 L24.9982949,25.8712669 C24.9982949,26.4937264 24.7328189,27 24.4065695,27 L16.5917254,27 C16.2654292,27 16,26.4936817 16,25.8713116 L16.0001172,21.8120029 C16.0001172,21.8106171 16.0002344,21.8092759 16.0002344,21.8078901 C16.0002344,21.8065043 16.0001172,21.8051632 16.0001172,21.8037773 C16.0001172,21.759039 16.0020718,21.7148279 16.0058639,21.6715236 C16.0028938,21.6530386 16.0011248,21.6342175 16.0006094,21.615157 C16.0005391,21.6126726 16.0002344,21.6103054 16.0002344,21.6078211 L16.0001172,14.5917488 C16.0001172,14.2654292 16.2655932,14 16.5918426,14 L22.5665887,14 C22.6451042,14 22.7159791,14.0322968 22.766979,14.0841873 L24.9159591,16.2331675 C24.9678262,16.285058 24.9958106,16.3538704 24.9977324,16.4243703 C24.9979434,16.4268078 24.9983427,16.4290812 24.9983427,16.4317999 L24.9982246,21.6078445 C24.9982246,21.6103289 24.9978965,21.6127429 24.9978496,21.6151804 C24.9973295,21.6342947 24.9955491,21.6531689 24.9925615,21.6717054 Z" id="Shape"></path>
                            </g>
                        </g>
                    </g>
                </g>
            </g>
        </g>
    </g>
</svg>